<?xml version="1.0" encoding="iso-8859-1"?>
<!-- Generator: Adobe Illustrator 16.0.0, SVG Export Plug-In . SVG Version: 6.00 Build 0)  -->
<!DOCTYPE svg PUBLIC "-//W3C//DTD SVG 1.1//EN" "http://www.w3.org/Graphics/SVG/1.1/DTD/svg11.dtd">
<svg version="1.1" id="Capa_1" xmlns="http://www.w3.org/2000/svg" xmlns:xlink="http://www.w3.org/1999/xlink" x="0px" y="0px"
	 width="95.121px" height="95.12px" viewBox="0 0 95.121 95.12" style="enable-background:new 0 0 95.121 95.12;"
	 xml:space="preserve">
<g>
	<g>
		<polygon points="9.863,18.553 12.665,18.553 15.119,16.801 13.718,15.049 		"/>
		<polygon points="36.859,4.048 38.787,5.274 39.662,5.274 40.888,1.595 35.982,0.72 36.859,1.595 		"/>
		<polygon points="40.769,14.751 39.505,16.543 39.505,19.642 42.88,17.767 45.277,16.726 45.068,13.809 41.798,13.017 
			40.857,15.159 		"/>
		<polygon points="36.54,11.228 35.259,11.06 34.359,11.932 35.451,12.409 		"/>
		<polygon points="37.128,7.416 36.029,6.816 35.63,9.038 37.349,8.69 		"/>
		<polygon points="9.974,13.344 8.824,12.88 9.269,15.049 10.337,14.574 		"/>
		<polygon points="11.248,9.629 9.421,7.058 8.494,7.717 8.478,9.662 9.39,10.948 		"/>
		<polygon points="5.117,11.227 4.902,12.169 6.206,12.466 6.312,11.997 5.767,11.375 		"/>
		<polygon points="44.359,5.264 43.16,4.803 41.96,5.264 41.96,7.108 43.689,7.799 		"/>
		<polygon points="29.921,0 27.189,0 25.988,0.461 25.988,2.305 27.732,1.499 		"/>
		<polygon points="29.921,6.081 33.083,6.191 33.189,2.397 31.121,3.775 29.921,4.237 		"/>
		<path d="M38.126,16.801h-1.287l-4.084-1.222l1.334-1.615l-5.166,1.084l2.197-6.046l-2.197,1.945l-4.055-6.893
			c-0.121,0.036-0.24,0.056-0.361,0.096c-3.898,1.316-6.516,4.686-7.072,8.497l2.861,1.061l-2.959,1.004
			c0.049,0.945,0.217,1.898,0.533,2.839c1.867,5.533,7.867,8.506,13.4,6.637C34.787,23.002,37.263,20.145,38.126,16.801z"/>
		<path d="M85.982,59.255l-11.143-2.8l-1.59,1.62l-2.764-2.714l-12.809-3.219c0.111-0.858-1.277-5.373-1.508-6.292l-0.027,0.052
			l-5.381,1.532l3.986-3.391l-3.355-3.576l2.682-0.927l-3.062-9.429c9.227-3.888,23.02-9.246,23.176-9.308
			c2.113-0.82,3.16-3.198,2.34-5.313c-0.818-2.113-3.186-3.17-5.312-2.341c-0.459,0.179-7.5,2.914-14.865,5.888l-0.311,2.679
			l-3.943-0.947c-1.844,0.756-3.629,1.499-5.256,2.191c-1.934-1.236-4.369-1.698-6.494-1.516c0,0-1.162,0.04-2.277,0.444
			c-1.066,0.387-2.18,1.04-2.18,1.04l-0.025,0.014c-3.092,1.963-5.754,5.921-4.365,10.042l0.725,2.146l1.574-1.535l-0.535,4.612
			l3.043,9.014l3.279-3.198l-0.627,5.407l-1.986-0.23l1.992,5.9c0.629,1.858,1.881,3.196,3.436,4.059l5.877,17.275l1.074-0.556
			l2.03,3.929l-2.104-0.438l4.068,11.957c0.993,2.926,4.174,4.489,7.1,3.497c0,0,0.003,0,0.005-0.002
			c2.926-0.995,4.491-4.174,3.495-7.102l-8.358-24.558l27.67,6.952c1.084,0.271,2.174,0.209,3.158-0.125
			c1.739-0.592,3.153-2.025,3.635-3.939C90.802,63.049,88.982,60.008,85.982,59.255z"/>
		<rect x="50.259" y="1.376" width="28.117" height="1.051"/>
		<rect x="63.074" y="6.816" width="12.219" height="1.051"/>
		<rect x="52.099" y="12.492" width="12.219" height="1.051"/>
	</g>
</g>
<g>
</g>
<g>
</g>
<g>
</g>
<g>
</g>
<g>
</g>
<g>
</g>
<g>
</g>
<g>
</g>
<g>
</g>
<g>
</g>
<g>
</g>
<g>
</g>
<g>
</g>
<g>
</g>
<g>
</g>
</svg>
